# xmcd
#
# Track frame offsets:
#	150
#	8660
#	18050
#	28025
#	38642
#	47732
#	67510
#	88227
#	98855
#	107965
#	118500
#	130152
#
# Disc length: 1848 seconds
#
# Revision: 1
# Processed by: cddbd v1.5.1PL0 Copyright (c) Steve Scherf et al.
# Submitted via: audiograbber 1.83.01
#
DISCID=8a07360c
DTITLE=Fats Domino - Greatest Hits Vol.2
DYEAR=1900
DGENRE=Blues
TTITLE0=I'm Ready
TTITLE1=I Want To Walk You Home
TTITLE2=I'mGonna Be A Wheel Some Day
TTITLE3=Walking To New Orleans
TTITLE4=My Girl Josephine
TTITLE5=Let The Four Winds Blow
TTITLE6=jambalaya (On The Bayou)
TTITLE7=Kansas City
TTITLE8=Be My Guest
TTITLE9=Bluebarry Hill
TTITLE10=Please Don't Leave Me
TTITLE11=Ballin' The Jack
EXTD=
EXTT0=
EXTT1=
EXTT2=
EXTT3=
EXTT4=
EXTT5=
EXTT6=
EXTT7=
EXTT8=
EXTT9=
EXTT10=
EXTT11=
PLAYORDER=
